<?xml version="1.0" encoding="UTF-8" standalone="no"?>
<!-- Created with Inkscape (http://www.inkscape.org/) -->

<svg
   width="75.590553"
   height="75.590553"
   viewBox="0 0 20.000001 20.000001"
   version="1.1"
   id="svg1"
   inkscape:version="1.3.2 (091e20e, 2023-11-25, custom)"
   sodipodi:docname="favicon.svg"
   xmlns:inkscape="http://www.inkscape.org/namespaces/inkscape"
   xmlns:sodipodi="http://sodipodi.sourceforge.net/DTD/sodipodi-0.dtd"
   xmlns="http://www.w3.org/2000/svg"
   xmlns:svg="http://www.w3.org/2000/svg">
  <sodipodi:namedview
     id="namedview1"
     pagecolor="#ffffff"
     bordercolor="#000000"
     borderopacity="0.25"
     inkscape:showpageshadow="2"
     inkscape:pageopacity="0.0"
     inkscape:pagecheckerboard="0"
     inkscape:deskcolor="#d1d1d1"
     inkscape:document-units="mm"
     inkscape:zoom="0.50331262"
     inkscape:cx="282.13082"
     inkscape:cy="316.90046"
     inkscape:window-width="1920"
     inkscape:window-height="1013"
     inkscape:window-x="-9"
     inkscape:window-y="-9"
     inkscape:window-maximized="1"
     inkscape:current-layer="layer1" />
  <defs
     id="defs1">
    <clipPath
       clipPathUnits="userSpaceOnUse"
       id="a">
      <path
         d="M 431.642,171.894 H 625.681 V 433.303 H 431.642 Z"
         id="path1" />
    </clipPath>
    <clipPath
       clipPathUnits="userSpaceOnUse"
       id="a-9-9">
      <path
         d="M 431.642,171.894 H 625.681 V 433.303 H 431.642 Z"
         id="path1-6-2" />
    </clipPath>
  </defs>
  <g
     inkscape:label="Calque 1"
     inkscape:groupmode="layer"
     id="layer1">
    <circle
       style="fill:#dfdede;fill-opacity:1;stroke-width:0.0353255"
       id="path14"
       cx="10"
       cy="10"
       r="10" />
    <g
       id="g2"
       transform="matrix(0.132615,0,0,0.132615,0.12835596,1.721813)">
      <path
         d="M 37.064655,115.84937 H 26.722915 V 27.422581 h 10.34174 z"
         style="fill:#00699e;fill-opacity:1;fill-rule:nonzero;stroke:none;stroke-width:0.705006"
         id="path2" />
      <path
         d="m 76.452235,115.84958 h -10.33539 l -0.006,-73.407342 h 10.33538 z"
         style="fill:#00699e;fill-opacity:1;fill-rule:nonzero;stroke:none;stroke-width:0.705006"
         id="path3" />
      <path
         d="M 96.149095,97.141344 H 85.807365 V 32.100297 h 10.34173 z"
         style="fill:#00699e;fill-opacity:1;fill-rule:nonzero;stroke:none;stroke-width:0.705006"
         id="path4" />
      <g
         clip-path="url(#a-9-9)"
         transform="matrix(0.7050061,0,0,-0.7050061,-298.26797,278.40263)"
         id="g13">
        <path
           d="m 0,0 c -1.24,0 -1.302,-1.443 -1.302,-3.617 0,-1.926 0.041,-3.768 1.322,-3.768 1.009,0 1.217,1.286 1.217,3.613 C 1.237,-1.642 1.155,0 0,0 M 1.3,-8.228 H 1.259 c -0.253,-0.82 -0.945,-1.773 -2.458,-1.773 -2.288,0 -3.506,1.729 -3.506,6.209 0,3.723 0.505,6.407 3.296,6.407 0.945,0 1.975,-0.332 2.542,-1.619 H 1.175 V 7.572 H 4.577 V -9.691 H 1.3 Z"
           style="fill:#265d78;fill-opacity:1;fill-rule:nonzero;stroke:none"
           transform="translate(541.1456,372.3212)"
           id="path5" />
        <path
           d="M 0,0 H 3.526 L 4.85,-8.847 H 4.892 L 6.235,0 H 9.638 L 6.825,-11.995 H 2.792 Z"
           style="fill:#265d78;fill-opacity:1;fill-rule:nonzero;stroke:none"
           transform="translate(491.1307,374.6256)"
           id="path6" />
        <path
           d="m 502.86,374.626 h 3.402 v -11.995 h -3.402 z m 6.407,5.267 h 3.401 V 362.63 h -3.401 z m 6.404,0 h 3.402 V 362.63 h -3.402 z"
           style="fill:#265d78;fill-opacity:1;fill-rule:nonzero;stroke:none"
           id="path7" />
        <path
           d="M 0,0 C 0,1.686 -0.213,2.594 -1.153,2.594 -2.267,2.594 -2.456,1.619 -2.456,0 Z m -2.456,-2.084 v -0.733 c 0,-1.862 0.25,-2.771 1.238,-2.771 0.882,0 1.155,0.689 1.24,2.196 H 3.17 c -0.063,-2.972 -1.594,-4.413 -4.41,-4.413 -4.282,0 -4.618,3.171 -4.618,6.74 0,3.37 0.923,5.876 4.618,5.876 4.221,0 4.516,-2.815 4.516,-6.895 z"
           style="fill:#265d78;fill-opacity:1;fill-rule:nonzero;stroke:none"
           transform="translate(527.1473,370.1249)"
           id="path8" />
        <path
           d="M 0,0 C 0,1.686 -0.21,2.594 -1.155,2.594 -2.269,2.594 -2.457,1.619 -2.457,0 Z m -2.457,-2.084 v -0.733 c 0,-1.862 0.253,-2.771 1.239,-2.771 0.882,0 1.153,0.689 1.238,2.196 h 3.149 c -0.063,-2.972 -1.596,-4.413 -4.408,-4.413 -4.285,0 -4.621,3.171 -4.621,6.74 0,3.37 0.924,5.876 4.621,5.876 4.219,0 4.512,-2.815 4.512,-6.895 z"
           style="fill:#265d78;fill-opacity:1;fill-rule:nonzero;stroke:none"
           transform="translate(553.7955,370.1249)"
           id="path9" />
        <path
           d="m 488.908,250.599 h 14.669 v 70.826 h -14.669 z m 14.669,98.764 h -14.669 v -14.669 h 14.669 z"
           style="fill:#00699e;fill-opacity:1;fill-rule:nonzero;stroke:none"
           id="path10" />
        <path
           d="M 0,0 V 12.713 H -23.618 V -71.069 H 0 v 12.714 h -9.274 v 22.82 H 0 v 12.714 H -9.274 V 0 Z"
           style="fill:#00699e;fill-opacity:1;fill-rule:nonzero;stroke:none"
           transform="translate(596.3378,314.9068)"
           id="path11" />
        <path
           d="m 502.86,379.893 h 3.402 v -3.388 h -3.402 z"
           style="fill:#265d78;fill-opacity:1;fill-rule:nonzero;stroke:none"
           id="path12" />
        <path
           d="m 0,0 c 0.685,6.938 10.271,6.037 10.271,6.037 l -3.615,4.475 c 0,0 -4.309,0.583 -6.229,-4.324 C 0.398,6.114 0.361,6.017 0.32,5.903 0.293,5.828 0.233,5.779 0.152,5.802 0.092,5.819 0.049,5.87 0.069,5.97 c 0.023,0.116 0.042,0.178 0.062,0.259 1.199,4.866 3.748,8.535 3.748,8.535 l -4.775,6.446 -4.775,-6.446 c 0,0 2.55,-3.669 3.748,-8.535 0.02,-0.081 0.04,-0.143 0.062,-0.259 0.02,-0.1 -0.022,-0.151 -0.083,-0.168 -0.08,-0.023 -0.141,0.026 -0.168,0.101 -0.041,0.114 -0.078,0.211 -0.107,0.285 -1.919,4.907 -6.228,4.324 -6.228,4.324 l -3.616,-4.475 c 0,0 9.586,0.901 10.271,-6.037 z"
           style="fill:#00699e;fill-opacity:1;fill-rule:nonzero;stroke:none"
           transform="translate(575.7461,360.924)"
           id="path13" />
      </g>
    </g>
  </g>
</svg>
