<svg width="121" height="121" viewBox="0 0 121 121" fill="none" xmlns="http://www.w3.org/2000/svg">
<path d="M60.5 0C93.9142 0 121 27.0859 121 60.5C121 93.9142 93.9142 121 60.5 121C27.0859 121 0 93.9142 0 60.5C0 27.0859 27.0859 0 60.5 0ZM60.5 78.65C58.8954 78.65 57.3566 79.2874 56.222 80.422C55.0874 81.5566 54.45 83.0954 54.45 84.7C54.45 86.3046 55.0874 87.8434 56.222 88.978C57.3566 90.1126 58.8954 90.75 60.5 90.75C62.1046 90.75 63.6434 90.1126 64.778 88.978C65.9126 87.8434 66.55 86.3046 66.55 84.7C66.55 83.0954 65.9126 81.5566 64.778 80.422C63.6434 79.2874 62.1046 78.65 60.5 78.65ZM60.5 24.2C59.0182 24.2002 57.5879 24.7442 56.4805 25.7289C55.3732 26.7136 54.6657 28.0705 54.4924 29.5422L54.45 30.25V66.55C54.4517 68.092 55.0422 69.5752 56.1007 70.6965C57.1593 71.8178 58.6061 72.4925 60.1454 72.5829C61.6848 72.6733 63.2006 72.1724 64.3831 71.1827C65.5656 70.193 66.3255 68.7891 66.5077 67.2579L66.55 66.55V30.25C66.55 28.6454 65.9126 27.1066 64.778 25.972C63.6434 24.8374 62.1046 24.2 60.5 24.2Z" fill="#BC7E15"/>
</svg>
