<svg width="34" height="34" viewBox="0 0 34 34" fill="none" xmlns="http://www.w3.org/2000/svg">
<path fill-rule="evenodd" clip-rule="evenodd" d="M2.6152 0C1.92161 0 1.25642 0.275549 0.765976 0.766028C0.27553 1.25651 0 1.92174 0 2.61538V31.3846C0 32.0783 0.27553 32.7435 0.765976 33.234C1.25642 33.7245 1.92161 34 2.6152 34H22.2292C22.576 34 22.9086 33.8622 23.1539 33.617C23.3991 33.3717 23.5368 33.0391 23.5368 32.6923C23.5368 32.3455 23.3991 32.0129 23.1539 31.7676C22.9086 31.5224 22.576 31.3846 22.2292 31.3846H2.6152V2.61538H22.2292C22.576 2.61538 22.9086 2.47761 23.1539 2.23237C23.3991 1.98713 23.5368 1.65451 23.5368 1.30769C23.5368 0.960871 23.3991 0.628254 23.1539 0.383014C22.9086 0.137774 22.576 0 22.2292 0H2.6152ZM27.7316 10.1895C27.4861 9.94399 27.1531 9.80604 26.8058 9.80604C26.4586 9.80604 26.1256 9.94399 25.8801 10.1895C25.6345 10.4351 25.4966 10.7681 25.4966 11.1154C25.4966 11.4626 25.6345 11.7957 25.8801 12.0412L29.5335 15.6923H11.7684C11.4216 15.6923 11.089 15.8301 10.8438 16.0753C10.5986 16.3206 10.4608 16.6532 10.4608 17C10.4608 17.3468 10.5986 17.6794 10.8438 17.9247C11.089 18.1699 11.4216 18.3077 11.7684 18.3077H29.5335L25.8801 21.9588C25.6345 22.2043 25.4966 22.5374 25.4966 22.8846C25.4966 23.2319 25.6345 23.5649 25.8801 23.8105C26.1256 24.056 26.4586 24.194 26.8058 24.194C27.1531 24.194 27.4861 24.056 27.7316 23.8105L33.6158 17.9258C33.7376 17.8044 33.8342 17.6601 33.9001 17.5012C33.9661 17.3423 34 17.172 34 17C34 16.828 33.9661 16.6577 33.9001 16.4988C33.8342 16.3399 33.7376 16.1956 33.6158 16.0742L27.7316 10.1895Z" fill="black"/>
</svg>
